<mxfile host="T7X">
  <diagram id="mxG" name="In progress">
    <mxGraphModel dx="0" dy="0" background="#FFFAFA" grid="0" gridSize="10" guides="1" tooltips="1" connect="1" arrows="1" fold="1" page="1" pageScale="1" pageWidth="1169" pageHeight="827" math="0" shadow="0">
      <root>
        <mxCell id="page_root_mxG" parent="mxG"/>
        <mxCell id="node_root_mxG" parent="page_root_mxG"/>
        <mxCell id="mxG-1" value="DrawIO DSL" style="whiteSpace=wrap;html=1;rounded=1;glass=1;fontColor=#1F2D3D;text;fontSize=28;fontStyle=1;fillColor=none" vertex="1" parent="node_root_mxG">
          <mxGeometry x="300" y="0" width="400" height="80" as="geometry"/>
        </mxCell>
        <mxCell id="mxG-3" value="refactor save_json data file so that it can easily be read by external DSL tools, make sure osave_json is work" style="whiteSpace=wrap;html=1;rounded=1;glass=1;fillColor=#d5e8d4;strokeColor=#82b366;fontColor=#333333" vertex="1" parent="node_root_mxG">
          <mxGeometry x="10" y="10" width="300" height="60" as="geometry"/>
        </mxCell>
        <mxCell id="mxG-4" value="line connectors can take an object reference as an alternative to an id" style="whiteSpace=wrap;html=1;rounded=1;glass=1;fillColor=#d5e8d4;strokeColor=#82b366;fontColor=#333333" vertex="1" parent="node_root_mxG">
          <mxGeometry x="330" y="10" width="300" height="60" as="geometry"/>
        </mxCell>
        <mxCell id="mxG-5" value="merge category and classification into one property" style="whiteSpace=wrap;html=1;rounded=1;glass=1;fillColor=#d5e8d4;strokeColor=#82b366;fontColor=#333333" vertex="1" parent="node_root_mxG">
          <mxGeometry x="650" y="10" width="300" height="60" as="geometry"/>
        </mxCell>
        <mxCell id="mxG-6" value="line connector aliases gives a simple way to use predefined line configurations" style="whiteSpace=wrap;html=1;rounded=1;glass=1;fillColor=#d5e8d4;strokeColor=#82b366;fontColor=#333333" vertex="1" parent="node_root_mxG">
          <mxGeometry x="10" y="90" width="300" height="60" as="geometry"/>
        </mxCell>
        <mxCell id="mxG-7" value="line connectors need to support autolinking using ids" style="whiteSpace=wrap;html=1;rounded=1;glass=1;fillColor=#d5e8d4;strokeColor=#82b366;fontColor=#333333" vertex="1" parent="node_root_mxG">
          <mxGeometry x="330" y="90" width="300" height="60" as="geometry"/>
        </mxCell>
        <mxCell id="mxG-8" value="new format for connectors - connect(:a, :b, :solid)" style="whiteSpace=wrap;html=1;rounded=1;glass=1;fillColor=#d5e8d4;strokeColor=#82b366;fontColor=#333333" vertex="1" parent="node_root_mxG">
          <mxGeometry x="650" y="90" width="300" height="60" as="geometry"/>
        </mxCell>
        <mxCell id="mxG-9" value="add help messages when invalid lookups are used for stroke, design etc." style="whiteSpace=wrap;html=1;rounded=1;glass=1;fillColor=#d5e8d4;strokeColor=#82b366;fontColor=#333333" vertex="1" parent="node_root_mxG">
          <mxGeometry x="10" y="170" width="300" height="60" as="geometry"/>
        </mxCell>
        <mxCell id="mxG-10" value="improve coverage" style="whiteSpace=wrap;html=1;rounded=1;glass=1;fillColor=#d5e8d4;strokeColor=#82b366;fontColor=#333333" vertex="1" parent="node_root_mxG">
          <mxGeometry x="330" y="170" width="300" height="60" as="geometry"/>
        </mxCell>
        <mxCell id="mxG-11" value="class html builder to support include/extend modules, class methods" style="whiteSpace=wrap;html=1;rounded=1;glass=1;fillColor=#d5e8d4;strokeColor=#82b366;fontColor=#333333" vertex="1" parent="node_root_mxG">
          <mxGeometry x="650" y="170" width="300" height="60" as="geometry"/>
        </mxCell>
      </root>
    </mxGraphModel>
  </diagram>
  <diagram id="QBp" name="To Do">
    <mxGraphModel dx="0" dy="0" background="#FFFAFA" grid="0" gridSize="10" guides="1" tooltips="1" connect="1" arrows="1" fold="1" page="1" pageScale="1" pageWidth="1169" pageHeight="827" math="0" shadow="0">
      <root>
        <mxCell id="page_root_QBp" parent="QBp"/>
        <mxCell id="node_root_QBp" parent="page_root_QBp"/>
        <mxCell id="QBp-2" value="add active flag to shapes" style="whiteSpace=wrap;html=1;rounded=1;glass=1;fillColor=#dae8fc;strokeColor=#6c8ebf;fontColor=#333333" vertex="1" parent="node_root_QBp">
          <mxGeometry x="10" y="10" width="300" height="60" as="geometry"/>
        </mxCell>
        <mxCell id="QBp-3" value="rename entry/exit compass point to start/end point to be consistent with the arrows" style="whiteSpace=wrap;html=1;rounded=1;glass=1;fillColor=#dae8fc;strokeColor=#6c8ebf;fontColor=#333333" vertex="1" parent="node_root_QBp">
          <mxGeometry x="330" y="10" width="300" height="60" as="geometry"/>
        </mxCell>
        <mxCell id="QBp-4" value="does x, y, w, h need to be on lines (yes for connectors, but other lines?)" style="whiteSpace=wrap;html=1;rounded=1;glass=1;fillColor=#dae8fc;strokeColor=#6c8ebf;fontColor=#333333" vertex="1" parent="node_root_QBp">
          <mxGeometry x="650" y="10" width="300" height="60" as="geometry"/>
        </mxCell>
        <mxCell id="QBp-5" value="update domain model with all the recent architecture changes" style="whiteSpace=wrap;html=1;rounded=1;glass=1;fillColor=#dae8fc;strokeColor=#6c8ebf;fontColor=#333333" vertex="1" parent="node_root_QBp">
          <mxGeometry x="10" y="90" width="300" height="60" as="geometry"/>
        </mxCell>
        <mxCell id="QBp-6" value="replace generated methods for shapes, texts and lines with meta programming" style="whiteSpace=wrap;html=1;rounded=1;glass=1;fillColor=#dae8fc;strokeColor=#6c8ebf;fontColor=#333333" vertex="1" parent="node_root_QBp">
          <mxGeometry x="330" y="90" width="300" height="60" as="geometry"/>
        </mxCell>
        <mxCell id="QBp-7" value="refactor HTML builder to custom GEM or use existing ruby GEM" style="whiteSpace=wrap;html=1;rounded=1;glass=1;fillColor=#dae8fc;strokeColor=#6c8ebf;fontColor=#333333" vertex="1" parent="node_root_QBp">
          <mxGeometry x="650" y="90" width="300" height="60" as="geometry"/>
        </mxCell>
        <mxCell id="QBp-8" value="add page background to theme, use it whenever the theme is set at a diagram/page level" style="whiteSpace=wrap;html=1;rounded=1;glass=1;fillColor=#dae8fc;strokeColor=#6c8ebf;fontColor=#333333" vertex="1" parent="node_root_QBp">
          <mxGeometry x="10" y="170" width="300" height="60" as="geometry"/>
        </mxCell>
        <mxCell id="QBp-9" value="move DrawioDsl::Formatters::Factory::FORMATTERS to resource file" style="whiteSpace=wrap;html=1;rounded=1;glass=1;fillColor=#dae8fc;strokeColor=#6c8ebf;fontColor=#333333" vertex="1" parent="node_root_QBp">
          <mxGeometry x="330" y="170" width="300" height="60" as="geometry"/>
        </mxCell>
        <mxCell id="QBp-10" value="move DrawioDsl::Formatters::StyleBuilder::MAPPINGS to resource file" style="whiteSpace=wrap;html=1;rounded=1;glass=1;fillColor=#dae8fc;strokeColor=#6c8ebf;fontColor=#333333" vertex="1" parent="node_root_QBp">
          <mxGeometry x="650" y="170" width="300" height="60" as="geometry"/>
        </mxCell>
        <mxCell id="QBp-11" value="write SVG directly into other projects" style="whiteSpace=wrap;html=1;rounded=1;glass=1;fillColor=#dae8fc;strokeColor=#6c8ebf;fontColor=#333333" vertex="1" parent="node_root_QBp">
          <mxGeometry x="10" y="250" width="300" height="60" as="geometry"/>
        </mxCell>
        <mxCell id="QBp-12" value="Nodes need to support child nodes - aka namespaces, groupings" style="whiteSpace=wrap;html=1;rounded=1;glass=1;fillColor=#dae8fc;strokeColor=#6c8ebf;fontColor=#333333" vertex="1" parent="node_root_QBp">
          <mxGeometry x="330" y="250" width="300" height="60" as="geometry"/>
        </mxCell>
        <mxCell id="QBp-13" value="Grid layout does not position itself in relation to the last element" style="whiteSpace=wrap;html=1;rounded=1;glass=1;fillColor=#dae8fc;strokeColor=#6c8ebf;fontColor=#333333" vertex="1" parent="node_root_QBp">
          <mxGeometry x="650" y="250" width="300" height="60" as="geometry"/>
        </mxCell>
        <mxCell id="QBp-14" value="Grid layout should not be affected by connector lines" style="whiteSpace=wrap;html=1;rounded=1;glass=1;fillColor=#dae8fc;strokeColor=#6c8ebf;fontColor=#333333" vertex="1" parent="node_root_QBp">
          <mxGeometry x="10" y="330" width="300" height="60" as="geometry"/>
        </mxCell>
        <mxCell id="QBp-15" value="Grid layout should support flow break (break to next section if less then boundary)" style="whiteSpace=wrap;html=1;rounded=1;glass=1;fillColor=#dae8fc;strokeColor=#6c8ebf;fontColor=#333333" vertex="1" parent="node_root_QBp">
          <mxGeometry x="330" y="330" width="300" height="60" as="geometry"/>
        </mxCell>
        <mxCell id="QBp-16" value="Grid layout should support hard break (break to next section)" style="whiteSpace=wrap;html=1;rounded=1;glass=1;fillColor=#dae8fc;strokeColor=#6c8ebf;fontColor=#333333" vertex="1" parent="node_root_QBp">
          <mxGeometry x="650" y="330" width="300" height="60" as="geometry"/>
        </mxCell>
        <mxCell id="QBp-17" value="Dynamic sized shapes that expand to the size of their text" style="whiteSpace=wrap;html=1;rounded=1;glass=1;fillColor=#dae8fc;strokeColor=#6c8ebf;fontColor=#333333" vertex="1" parent="node_root_QBp">
          <mxGeometry x="10" y="410" width="300" height="60" as="geometry"/>
        </mxCell>
        <mxCell id="QBp-18" value="Control of text padding left, right, top and bottom" style="whiteSpace=wrap;html=1;rounded=1;glass=1;fillColor=#dae8fc;strokeColor=#6c8ebf;fontColor=#333333" vertex="1" parent="node_root_QBp">
          <mxGeometry x="330" y="410" width="300" height="60" as="geometry"/>
        </mxCell>
        <mxCell id="QBp-19" value="Improve the theme control over text-only shapes" style="whiteSpace=wrap;html=1;rounded=1;glass=1;fillColor=#dae8fc;strokeColor=#6c8ebf;fontColor=#333333" vertex="1" parent="node_root_QBp">
          <mxGeometry x="650" y="410" width="300" height="60" as="geometry"/>
        </mxCell>
        <mxCell id="QBp-20" value="x,y settings do not work for shapes within a grid layout" style="whiteSpace=wrap;html=1;rounded=1;glass=1;fillColor=#dae8fc;strokeColor=#6c8ebf;fontColor=#333333" vertex="1" parent="node_root_QBp">
          <mxGeometry x="10" y="490" width="300" height="60" as="geometry"/>
        </mxCell>
        <mxCell id="QBp-21" value="page layout so that you drop elements on and they are positioned correctly, e.g centered, left, right, etc, maybe a grid layout with a wrap of 1 and a width of the page is sufficient" style="whiteSpace=wrap;html=1;rounded=1;glass=1;fillColor=#dae8fc;strokeColor=#6c8ebf;fontColor=#333333" vertex="1" parent="node_root_QBp">
          <mxGeometry x="330" y="490" width="300" height="60" as="geometry"/>
        </mxCell>
      </root>
    </mxGraphModel>
  </diagram>
  <diagram id="db5" name="Done">
    <mxGraphModel dx="0" dy="0" background="#FFFAFA" grid="0" gridSize="10" guides="1" tooltips="1" connect="1" arrows="1" fold="1" page="1" pageScale="1" pageWidth="1169" pageHeight="827" math="0" shadow="0">
      <root>
        <mxCell id="page_root_db5" parent="db5"/>
        <mxCell id="node_root_db5" parent="page_root_db5"/>
        <mxCell id="db5-2" value="line connectors should not effect the grid positioning systems" style="whiteSpace=wrap;html=1;rounded=1;glass=1;fillColor=#f8cecc;strokeColor=#b85450;fontColor=#333333" vertex="1" parent="node_root_db5">
          <mxGeometry x="10" y="10" width="300" height="60" as="geometry"/>
        </mxCell>
        <mxCell id="db5-3" value="bg_theme does not work OR at least make it better (see willoughby example)" style="whiteSpace=wrap;html=1;rounded=1;glass=1;fillColor=#f8cecc;strokeColor=#b85450;fontColor=#333333" vertex="1" parent="node_root_db5">
          <mxGeometry x="330" y="10" width="300" height="60" as="geometry"/>
        </mxCell>
        <mxCell id="db5-4" value="settings style attributes need to de-duplicate, might be best to utilize the new StyleBuilder class" style="whiteSpace=wrap;html=1;rounded=1;glass=1;fillColor=#f8cecc;strokeColor=#b85450;fontColor=#333333" vertex="1" parent="node_root_db5">
          <mxGeometry x="650" y="10" width="300" height="60" as="geometry"/>
        </mxCell>
        <mxCell id="db5-5" value="add support for :design to line" style="whiteSpace=wrap;html=1;rounded=1;glass=1;fillColor=#f8cecc;strokeColor=#b85450;fontColor=#333333" vertex="1" parent="node_root_db5">
          <mxGeometry x="10" y="90" width="300" height="60" as="geometry"/>
        </mxCell>
        <mxCell id="db5-6" value="add support for :arrow to line" style="whiteSpace=wrap;html=1;rounded=1;glass=1;fillColor=#f8cecc;strokeColor=#b85450;fontColor=#333333" vertex="1" parent="node_root_db5">
          <mxGeometry x="330" y="90" width="300" height="60" as="geometry"/>
        </mxCell>
        <mxCell id="db5-7" value="add support for :waypoint to line" style="whiteSpace=wrap;html=1;rounded=1;glass=1;fillColor=#f8cecc;strokeColor=#b85450;fontColor=#333333" vertex="1" parent="node_root_db5">
          <mxGeometry x="650" y="90" width="300" height="60" as="geometry"/>
        </mxCell>
        <mxCell id="db5-8" value="add support for :exit, :entry to line" style="whiteSpace=wrap;html=1;rounded=1;glass=1;fillColor=#f8cecc;strokeColor=#b85450;fontColor=#333333" vertex="1" parent="node_root_db5">
          <mxGeometry x="10" y="170" width="300" height="60" as="geometry"/>
        </mxCell>
        <mxCell id="db5-9" value="add support for :design to line" style="whiteSpace=wrap;html=1;rounded=1;glass=1;fillColor=#f8cecc;strokeColor=#b85450;fontColor=#333333" vertex="1" parent="node_root_db5">
          <mxGeometry x="330" y="170" width="300" height="60" as="geometry"/>
        </mxCell>
        <mxCell id="db5-10" value="refactor shapes to use configuration file and split into elements, lines and texts" style="whiteSpace=wrap;html=1;rounded=1;glass=1;fillColor=#f8cecc;strokeColor=#b85450;fontColor=#333333" vertex="1" parent="node_root_db5">
          <mxGeometry x="650" y="170" width="300" height="60" as="geometry"/>
        </mxCell>
        <mxCell id="db5-11" value="add new shapes related to line connectors, plus add stroke: configuration" style="whiteSpace=wrap;html=1;rounded=1;glass=1;fillColor=#f8cecc;strokeColor=#b85450;fontColor=#333333" vertex="1" parent="node_root_db5">
          <mxGeometry x="10" y="250" width="300" height="60" as="geometry"/>
        </mxCell>
        <mxCell id="db5-12" value="rename type to key" style="whiteSpace=wrap;html=1;rounded=1;glass=1;fillColor=#f8cecc;strokeColor=#b85450;fontColor=#333333" vertex="1" parent="node_root_db5">
          <mxGeometry x="330" y="250" width="300" height="60" as="geometry"/>
        </mxCell>
        <mxCell id="db5-13" value="headings do not appear to be working?" style="whiteSpace=wrap;html=1;rounded=1;glass=1;fillColor=#f8cecc;strokeColor=#b85450;fontColor=#333333" vertex="1" parent="node_root_db5">
          <mxGeometry x="650" y="250" width="300" height="60" as="geometry"/>
        </mxCell>
        <mxCell id="db5-14" value="add sample for backgrounds with text on top, add support for favourite backgrounds" style="whiteSpace=wrap;html=1;rounded=1;glass=1;fillColor=#f8cecc;strokeColor=#b85450;fontColor=#333333" vertex="1" parent="node_root_db5">
          <mxGeometry x="10" y="330" width="300" height="60" as="geometry"/>
        </mxCell>
        <mxCell id="db5-15" value="add background themes, with foreground text color" style="whiteSpace=wrap;html=1;rounded=1;glass=1;fillColor=#f8cecc;strokeColor=#b85450;fontColor=#333333" vertex="1" parent="node_root_db5">
          <mxGeometry x="330" y="330" width="300" height="60" as="geometry"/>
        </mxCell>
        <mxCell id="db5-16" value="refactor shapes configuration so that it reads from custom file" style="whiteSpace=wrap;html=1;rounded=1;glass=1;fillColor=#f8cecc;strokeColor=#b85450;fontColor=#333333" vertex="1" parent="node_root_db5">
          <mxGeometry x="650" y="330" width="300" height="60" as="geometry"/>
        </mxCell>
        <mxCell id="db5-17" value="fix :text" style="whiteSpace=wrap;html=1;rounded=1;glass=1;fillColor=#f8cecc;strokeColor=#b85450;fontColor=#333333" vertex="1" parent="node_root_db5">
          <mxGeometry x="10" y="410" width="300" height="60" as="geometry"/>
        </mxCell>
        <mxCell id="db5-18" value="configuration for lines" style="whiteSpace=wrap;html=1;rounded=1;glass=1;fillColor=#f8cecc;strokeColor=#b85450;fontColor=#333333" vertex="1" parent="node_root_db5">
          <mxGeometry x="330" y="410" width="300" height="60" as="geometry"/>
        </mxCell>
        <mxCell id="db5-19" value="configuration for text" style="whiteSpace=wrap;html=1;rounded=1;glass=1;fillColor=#f8cecc;strokeColor=#b85450;fontColor=#333333" vertex="1" parent="node_root_db5">
          <mxGeometry x="650" y="410" width="300" height="60" as="geometry"/>
        </mxCell>
        <mxCell id="db5-20" value="configuration for elements" style="whiteSpace=wrap;html=1;rounded=1;glass=1;fillColor=#f8cecc;strokeColor=#b85450;fontColor=#333333" vertex="1" parent="node_root_db5">
          <mxGeometry x="10" y="490" width="300" height="60" as="geometry"/>
        </mxCell>
        <mxCell id="db5-21" value="configuration for line strokes" style="whiteSpace=wrap;html=1;rounded=1;glass=1;fillColor=#f8cecc;strokeColor=#b85450;fontColor=#333333" vertex="1" parent="node_root_db5">
          <mxGeometry x="330" y="490" width="300" height="60" as="geometry"/>
        </mxCell>
        <mxCell id="db5-22" value="configuration for connector compass direction" style="whiteSpace=wrap;html=1;rounded=1;glass=1;fillColor=#f8cecc;strokeColor=#b85450;fontColor=#333333" vertex="1" parent="node_root_db5">
          <mxGeometry x="650" y="490" width="300" height="60" as="geometry"/>
        </mxCell>
        <mxCell id="db5-23" value="configuration for connector design" style="whiteSpace=wrap;html=1;rounded=1;glass=1;fillColor=#f8cecc;strokeColor=#b85450;fontColor=#333333" vertex="1" parent="node_root_db5">
          <mxGeometry x="10" y="570" width="300" height="60" as="geometry"/>
        </mxCell>
        <mxCell id="db5-24" value="configuration for connector arrows" style="whiteSpace=wrap;html=1;rounded=1;glass=1;fillColor=#f8cecc;strokeColor=#b85450;fontColor=#333333" vertex="1" parent="node_root_db5">
          <mxGeometry x="330" y="570" width="300" height="60" as="geometry"/>
        </mxCell>
        <mxCell id="db5-25" value="configuration for connector waypoints" style="whiteSpace=wrap;html=1;rounded=1;glass=1;fillColor=#f8cecc;strokeColor=#b85450;fontColor=#333333" vertex="1" parent="node_root_db5">
          <mxGeometry x="650" y="570" width="300" height="60" as="geometry"/>
        </mxCell>
        <mxCell id="db5-26" value="export_json will output a diagram in machine readable format" style="whiteSpace=wrap;html=1;rounded=1;glass=1;fillColor=#f8cecc;strokeColor=#b85450;fontColor=#333333" vertex="1" parent="node_root_db5">
          <mxGeometry x="10" y="650" width="300" height="60" as="geometry"/>
        </mxCell>
        <mxCell id="db5-27" value="class html formatter to support regular html nodes such as p, h1.. ul, li that are found on the builder" style="whiteSpace=wrap;html=1;rounded=1;glass=1;fillColor=#f8cecc;strokeColor=#b85450;fontColor=#333333" vertex="1" parent="node_root_db5">
          <mxGeometry x="330" y="650" width="300" height="60" as="geometry"/>
        </mxCell>
        <mxCell id="db5-28" value="group box, like a regular box but with a top aligned h1 style title" style="whiteSpace=wrap;html=1;rounded=1;glass=1;fillColor=#f8cecc;strokeColor=#b85450;fontColor=#333333" vertex="1" parent="node_root_db5">
          <mxGeometry x="650" y="650" width="300" height="60" as="geometry"/>
        </mxCell>
        <mxCell id="db5-29" value="build a domain (class) diagram" style="whiteSpace=wrap;html=1;rounded=1;glass=1;fillColor=#f8cecc;strokeColor=#b85450;fontColor=#333333" vertex="1" parent="node_root_db5">
          <mxGeometry x="10" y="730" width="300" height="60" as="geometry"/>
        </mxCell>
        <mxCell id="db5-30" value="build configuration for line strokes %i[dashed dotted dashdot dashdotdot dotdotdot longdash)" style="whiteSpace=wrap;html=1;rounded=1;glass=1;fillColor=#f8cecc;strokeColor=#b85450;fontColor=#333333" vertex="1" parent="node_root_db5">
          <mxGeometry x="330" y="730" width="300" height="60" as="geometry"/>
        </mxCell>
        <mxCell id="db5-31" value="build configuration for line compass %i[n ne e se s sw w nw]" style="whiteSpace=wrap;html=1;rounded=1;glass=1;fillColor=#f8cecc;strokeColor=#b85450;fontColor=#333333" vertex="1" parent="node_root_db5">
          <mxGeometry x="650" y="730" width="300" height="60" as="geometry"/>
        </mxCell>
        <mxCell id="db5-32" value="build configuration for line shape %i[style1 style2 style3 style4]" style="whiteSpace=wrap;html=1;rounded=1;glass=1;fillColor=#f8cecc;strokeColor=#b85450;fontColor=#333333" vertex="1" parent="node_root_db5">
          <mxGeometry x="10" y="810" width="300" height="60" as="geometry"/>
        </mxCell>
        <mxCell id="db5-33" value="build configuration for arrows %i[straight triangle diamond circle cross short default none plain skewed_dash concave er_many er_one er_one_optional er_one_mandatory er_many_optional er_many_mandatory]" style="whiteSpace=wrap;html=1;rounded=1;glass=1;fillColor=#f8cecc;strokeColor=#b85450;fontColor=#333333" vertex="1" parent="node_root_db5">
          <mxGeometry x="330" y="810" width="300" height="60" as="geometry"/>
        </mxCell>
        <mxCell id="db5-34" value="refactor the shape-&gt;text_only (boolean) to category (symbol)" style="whiteSpace=wrap;html=1;rounded=1;glass=1;fillColor=#f8cecc;strokeColor=#b85450;fontColor=#333333" vertex="1" parent="node_root_db5">
          <mxGeometry x="650" y="810" width="300" height="60" as="geometry"/>
        </mxCell>
        <mxCell id="db5-35" value="ensure that ids are working as expected" style="whiteSpace=wrap;html=1;rounded=1;glass=1;fillColor=#f8cecc;strokeColor=#b85450;fontColor=#333333" vertex="1" parent="node_root_db5">
          <mxGeometry x="10" y="890" width="300" height="60" as="geometry"/>
        </mxCell>
        <mxCell id="db5-36" value="alter the initial parameter of all shapes so that it can be an ID, without named attribute" style="whiteSpace=wrap;html=1;rounded=1;glass=1;fillColor=#f8cecc;strokeColor=#b85450;fontColor=#333333" vertex="1" parent="node_root_db5">
          <mxGeometry x="330" y="890" width="300" height="60" as="geometry"/>
        </mxCell>
        <mxCell id="db5-37" value="move project-plan files" style="whiteSpace=wrap;html=1;rounded=1;glass=1;fillColor=#f8cecc;strokeColor=#b85450;fontColor=#333333" vertex="1" parent="node_root_db5">
          <mxGeometry x="650" y="890" width="300" height="60" as="geometry"/>
        </mxCell>
        <mxCell id="db5-38" value="alter configure_shape so it sets the default shape key and use that for selecting the default HTML formatter" style="whiteSpace=wrap;html=1;rounded=1;glass=1;fillColor=#f8cecc;strokeColor=#b85450;fontColor=#333333" vertex="1" parent="node_root_db5">
          <mxGeometry x="10" y="970" width="300" height="60" as="geometry"/>
        </mxCell>
        <mxCell id="db5-39" value="add todo shape to simplify project plan drawing" style="whiteSpace=wrap;html=1;rounded=1;glass=1;fillColor=#f8cecc;strokeColor=#b85450;fontColor=#333333" vertex="1" parent="node_root_db5">
          <mxGeometry x="330" y="970" width="300" height="60" as="geometry"/>
        </mxCell>
        <mxCell id="db5-40" value="introduce .value property to shape and let it use either formatted HTML or plain text title" style="whiteSpace=wrap;html=1;rounded=1;glass=1;fillColor=#f8cecc;strokeColor=#b85450;fontColor=#333333" vertex="1" parent="node_root_db5">
          <mxGeometry x="650" y="970" width="300" height="60" as="geometry"/>
        </mxCell>
        <mxCell id="db5-41" value="formatter DSL that can render HTML directly into the value property" style="whiteSpace=wrap;html=1;rounded=1;glass=1;fillColor=#f8cecc;strokeColor=#b85450;fontColor=#333333" vertex="1" parent="node_root_db5">
          <mxGeometry x="10" y="1050" width="300" height="60" as="geometry"/>
        </mxCell>
        <mxCell id="db5-42" value="formatter DSL for class and interface generation" style="whiteSpace=wrap;html=1;rounded=1;glass=1;fillColor=#f8cecc;strokeColor=#b85450;fontColor=#333333" vertex="1" parent="node_root_db5">
          <mxGeometry x="330" y="1050" width="300" height="60" as="geometry"/>
        </mxCell>
        <mxCell id="db5-43" value="generate extension based graphics based on drawio extensions.js" style="whiteSpace=wrap;html=1;rounded=1;glass=1;fillColor=#f8cecc;strokeColor=#b85450;fontColor=#333333" vertex="1" parent="node_root_db5">
          <mxGeometry x="650" y="1050" width="300" height="60" as="geometry"/>
        </mxCell>
        <mxCell id="db5-44" value="active? flag on page defaulting to true. set to false to exclude page from diagram." style="whiteSpace=wrap;html=1;rounded=1;glass=1;fillColor=#f8cecc;strokeColor=#b85450;fontColor=#333333" vertex="1" parent="node_root_db5">
          <mxGeometry x="10" y="1130" width="300" height="60" as="geometry"/>
        </mxCell>
        <mxCell id="db5-45" value="first level child nodes need to hang of node 1" style="whiteSpace=wrap;html=1;rounded=1;glass=1;fillColor=#f8cecc;strokeColor=#b85450;fontColor=#333333" vertex="1" parent="node_root_db5">
          <mxGeometry x="330" y="1130" width="300" height="60" as="geometry"/>
        </mxCell>
        <mxCell id="db5-46" value="node has child nodes and add_node will set a nodes parent" style="whiteSpace=wrap;html=1;rounded=1;glass=1;fillColor=#f8cecc;strokeColor=#b85450;fontColor=#333333" vertex="1" parent="node_root_db5">
          <mxGeometry x="650" y="1130" width="300" height="60" as="geometry"/>
        </mxCell>
        <mxCell id="db5-47" value="nodes can belong to a parent node, the top level node responds with truthy to root?" style="whiteSpace=wrap;html=1;rounded=1;glass=1;fillColor=#f8cecc;strokeColor=#b85450;fontColor=#333333" vertex="1" parent="node_root_db5">
          <mxGeometry x="10" y="1210" width="300" height="60" as="geometry"/>
        </mxCell>
        <mxCell id="db5-48" value="add sample diagram for the github readme file" style="whiteSpace=wrap;html=1;rounded=1;glass=1;fillColor=#f8cecc;strokeColor=#b85450;fontColor=#333333" vertex="1" parent="node_root_db5">
          <mxGeometry x="330" y="1210" width="300" height="60" as="geometry"/>
        </mxCell>
        <mxCell id="db5-49" value="write samples into docs folder and display in readme" style="whiteSpace=wrap;html=1;rounded=1;glass=1;fillColor=#f8cecc;strokeColor=#b85450;fontColor=#333333" vertex="1" parent="node_root_db5">
          <mxGeometry x="650" y="1210" width="300" height="60" as="geometry"/>
        </mxCell>
        <mxCell id="db5-50" value="add export as .PNG, needs to take a page number as the PNG will not support multiple pages" style="whiteSpace=wrap;html=1;rounded=1;glass=1;fillColor=#f8cecc;strokeColor=#b85450;fontColor=#333333" vertex="1" parent="node_root_db5">
          <mxGeometry x="10" y="1290" width="300" height="60" as="geometry"/>
        </mxCell>
        <mxCell id="db5-51" value="add export as .SVG, needs to take a page number as the SVG will not support multiple pages" style="whiteSpace=wrap;html=1;rounded=1;glass=1;fillColor=#f8cecc;strokeColor=#b85450;fontColor=#333333" vertex="1" parent="node_root_db5">
          <mxGeometry x="330" y="1290" width="300" height="60" as="geometry"/>
        </mxCell>
        <mxCell id="db5-52" value="add save as .drawio" style="whiteSpace=wrap;html=1;rounded=1;glass=1;fillColor=#f8cecc;strokeColor=#b85450;fontColor=#333333" vertex="1" parent="node_root_db5">
          <mxGeometry x="650" y="1290" width="300" height="60" as="geometry"/>
        </mxCell>
      </root>
    </mxGraphModel>
  </diagram>
</mxfile>